Coordinates
version=1
nRows=10
nColumns=40
inDegrees=yes

Units are S.I. units (second, meters, Newtons, ...)
Angles are in degrees.

endheader
time	pelvis_tilt	pelvis_list	pelvis_rotation	pelvis_tx	pelvis_ty	pelvis_tz	hip_flexion_r	hip_adduction_r	hip_rotation_r	knee_angle_r	knee_angle_r_beta	ankle_angle_r	subtalar_angle_r	mtp_angle_r	hip_flexion_l	hip_adduction_l	hip_rotation_l	knee_angle_l	knee_angle_l_beta	ankle_angle_l	subtalar_angle_l	mtp_angle_l	lumbar_extension	lumbar_bending	lumbar_rotation	arm_flex_r	arm_add_r	arm_rot_r	elbow_flex_r	pro_sup_r	wrist_flex_r	wrist_dev_r	arm_flex_l	arm_add_l	arm_rot_l	elbow_flex_l	pro_sup_l	wrist_flex_l	wrist_dev_l
     34.94000000	     -2.62869211	     -4.21996148	      1.83649606	      1.04889785	      0.93127738	      0.38612517	     28.49754924	     -5.52485281	     -5.14133473	     64.39434884	     64.39434884	      0.09042707	    -14.30212458	      0.81587659	     16.14151963	     -5.46867542	     -7.31340513	     23.70799667	     23.70799667	     12.06721150	    -11.44241606	     -1.07109284	    -10.84635630	      3.99514548	      1.33556976	      3.64284656	    -12.35640342	      0.80422772	     27.55727494	     45.82156587	      0.00000000	      0.00000000	     13.70709052	    -15.28722842	      0.18857202	     44.93587577	     45.82717271	      0.00000000	      0.00000000
     34.95300000	     -2.71515618	     -4.36059127	      1.36736428	      1.04793700	      0.93198528	      0.38626617	     29.05527972	     -5.34091901	     -5.13396031	     62.24606656	     62.24606656	      0.28459076	    -13.99861681	      0.76507865	     15.61285199	     -5.63397493	     -7.53927669	     23.28498609	     23.28498609	     12.15536060	    -11.64579135	     -0.96236112	    -10.91375488	      4.21193082	      1.23399957	      2.66478108	    -12.46409016	      0.76374022	     27.21266713	     45.83457561	      0.00000000	      0.00000000	     14.18910045	    -15.55149902	      0.06256520	     45.54735179	     45.85590351	      0.00000000	      0.00000000
     34.96600000	     -2.77346008	     -4.46815427	      0.86245990	      1.04695962	      0.93269765	      0.38651056	     29.41458079	     -5.12886443	     -5.09464755	     59.76802786	     59.76802786	     -0.00144626	    -13.92757484	     -0.49210680	     15.00200538	     -5.77276497	     -7.84397602	     22.76766929	     22.76766929	     12.13166300	    -11.84380738	     -1.12378276	    -11.09925635	      4.35249400	      1.17590268	      1.57373479	    -12.56715066	      0.34040165	     27.26072854	     45.88332806	      0.00000000	      0.00000000	     14.20711428	    -15.99642266	     -0.05760362	     47.56590673	     45.93194134	      0.00000000	      0.00000000
     34.97900000	     -2.89204115	     -4.60493216	      0.38005070	      1.04593881	      0.93324372	      0.38680074	     29.74650280	     -4.87701754	     -5.11555217	     57.13493645	     57.13493645	      0.15385038	    -13.51287489	     -0.31982897	     14.52293903	     -5.95342713	     -8.15129026	     22.36349780	     22.36349780	     12.25737616	    -11.92224246	     -1.06464598	    -11.15547802	      4.53646878	      1.05794517	      0.69911852	    -12.68232047	      0.32417308	     26.89150784	     45.89572954	      0.00000000	      0.00000000	     14.70652069	    -16.30104897	     -0.18365785	     48.00071271	     45.95855371	      0.00000000	      0.00000000
     34.99200000	     -2.94908786	     -4.69214385	     -0.11625133	      1.04494264	      0.93382879	      0.38723414	     29.86390436	     -4.63269281	     -5.11652454	     54.21156542	     54.21156542	      0.33775103	    -13.02412139	     -0.28416399	     13.94200592	     -6.09033894	     -8.54215073	     21.89930549	     21.89930549	     12.34958361	    -11.94433676	     -1.04751535	    -11.35500056	      4.63624277	      1.18617228	     -0.21180283	    -12.83112582	      0.25109023	     26.55908121	     45.91391629	      0.00000000	      0.00000000	     15.20993750	    -16.52965743	     -0.31606367	     48.87434851	     45.99551918	      0.00000000	      0.00000000
     35.00500000	     -3.21336402	     -4.80242748	     -0.58622705	      1.04383551	      0.93395589	      0.38778840	     30.10414885	     -4.37050144	     -5.22252222	     51.04815487	     51.04815487	      0.55232287	    -12.35542827	     -0.09047970	     13.67926965	     -6.25689967	     -8.85444142	     21.57038680	     21.57038680	     12.47018886	    -12.03865191	     -1.03709621	    -11.27308324	      4.77211422	      1.02466108	     -0.92581159	    -12.92072716	      0.20637899	     26.33818292	     45.92253292	      0.00000000	      0.00000000	     15.57659457	    -16.88782594	     -0.42423881	     49.29133364	     46.01727305	      0.00000000	      0.00000000
     35.01800000	     -3.33671426	     -4.90301992	     -1.03105453	      1.04281200	      0.93425296	      0.38838156	     29.99062641	     -4.10533373	     -5.40630638	     47.48815043	     47.48815043	      0.83471388	    -11.44221284	     -0.03224200	     13.23965038	     -6.40846940	     -9.17925909	     21.20589718	     21.20589718	     12.58764274	    -12.07064291	     -1.05677013	    -11.36545910	      4.90041940	      0.99936315	     -1.57753220	    -13.10044672	      0.12299965	     26.16812932	     45.93375382	      0.00000000	      0.00000000	     15.95883090	    -17.08059438	     -0.49930516	     49.94917181	     46.04042263	      0.00000000	      0.00000000
     35.03100000	     -3.62301847	     -4.95641018	     -1.50814231	      1.04167624	      0.93415993	      0.38923465	     29.96019502	     -3.82583297	     -5.57549677	     43.68434244	     43.68434244	      1.16854212	    -10.31424945	     -0.00255748	     13.01732959	     -6.53632475	     -9.52830383	     20.90104246	     20.90104246	     12.68907848	    -12.12264034	     -1.09853519	    -11.30038270	      4.96645851	      0.96482674	     -2.12872188	    -13.17941812	      0.04748992	     26.07085116	     45.94124966	      0.00000000	      0.00000000	     16.30212307	    -17.37325476	     -0.57637591	     50.47966229	     46.06099292	      0.00000000	      0.00000000
     35.04400000	     -3.79108397	     -4.99273156	     -1.93944990	      1.04066736	      0.93408898	      0.39017601	     29.47822378	     -3.59050122	     -5.99430588	     39.22475258	     39.22475258	      0.43525384	     -9.12714653	     -3.36160129	     12.64890329	     -6.66959834	     -9.96651634	     20.57077704	     20.57077704	     12.64870320	    -12.07807324	     -1.69713885	    -11.45273607	      4.97227221	      0.91529444	     -2.83315035	    -13.27867472	     -0.80781148	     26.87010416	     45.99464050	      0.00000000	      0.00000000	     16.13509942	    -17.83778232	     -0.38533280	     52.40555552	     46.11917200	      0.00000000	      0.00000000
     35.05700000	     -4.11746314	     -5.05983467	     -2.36032050	      1.03955638	      0.93378757	      0.39131672	     29.13327777	     -3.20862812	     -6.35056469	     34.75603449	     34.75603449	      0.77744911	     -7.35087025	     -3.14549488	     12.51761813	     -6.82758001	    -10.24125264	     20.34316689	     20.34316689	     12.76528955	    -12.17564089	     -1.73063392	    -11.34316572	      5.04219710	      0.84928517	     -3.13050566	    -13.38528570	     -0.85857166	     26.74369906	     46.00428459	      0.00000000	      0.00000000	     16.50626433	    -17.99467893	     -0.40623266	     52.51096721	     46.13264481	      0.00000000	      0.00000000
